<svg width="102" height="36" viewBox="0 0 102 36" fill="none" xmlns="http://www.w3.org/2000/svg">
<path fill-rule="evenodd" clip-rule="evenodd" d="M13.3214 1.79889C6.77028 9.34845 0.489033 18.7106 0.426048 25.7084C0.401518 28.3414 1.25811 30.64 3.31275 32.381C6.26972 34.8884 9.5277 35.7726 12.7698 35.7778C17.5076 35.7843 22.2122 33.9086 25.8958 32.4623C32.0995 30.0278 100.675 0.804775 100.675 0.804775C101.337 0.479475 101.213 0.0741538 100.385 0.27649C100.051 0.358466 25.7294 20.123 25.7294 20.123C24.3216 20.5137 22.8669 20.7181 21.404 20.7307C15.6923 20.7639 10.6097 17.6527 10.6508 11.0966C10.6667 8.5313 11.467 5.4377 13.3214 1.79889Z" fill="#9D9FA2"/>
</svg>
