<svg width="114" height="40" viewBox="0 0 114 40" fill="none" xmlns="http://www.w3.org/2000/svg">
<path fill-rule="evenodd" clip-rule="evenodd" d="M97.388 2.03904C96.6216 1.27209 95.5527 0.888916 94.5669 0.888916H19.1586C18.1859 0.888916 17.1176 1.31334 16.3781 2.03904L1.24396 17.2394C-0.316981 18.787 -0.28948 21.3073 1.27146 22.8543L16.4194 37.9596C17.1451 38.6859 18.1859 39.1098 19.1586 39.1098H94.5944C95.5527 39.1373 96.621 38.7541 97.388 37.9871L112.535 22.8274C114.056 21.3073 114.056 18.7601 112.535 17.24L97.388 2.03904ZM96.3191 35.8226C95.6346 36.5076 94.7307 36.837 93.8262 36.837V36.8376H19.665C18.8155 36.8089 17.884 36.4532 17.227 35.7957L3.87383 22.4574C2.51854 21.1016 2.49104 18.897 3.84693 17.5413L17.2001 4.17551C17.8571 3.5323 18.7886 3.16227 19.6656 3.16227H93.8262C94.7032 3.18977 95.6346 3.5317 96.3191 4.20301L109.672 17.5688C110.324 18.2211 110.689 19.1051 110.689 20.0268C110.689 20.9486 110.324 21.8326 109.672 22.4849L96.3191 35.8226ZM34.7678 24.9489C36.3915 27.9371 34.4265 31.2829 30.9063 31.2829V31.2823H20.304C19.731 31.2541 19.4582 30.965 19.4308 30.4007V27.5921C19.4318 27.4636 19.4581 27.3365 19.5082 27.2182C19.5582 27.1 19.631 26.993 19.7224 26.9033C19.8138 26.8137 19.9219 26.7433 20.0404 26.6962C20.159 26.649 20.2856 26.6261 20.413 26.6287H27.1127C27.6172 26.6287 27.7542 26.2291 27.563 25.94C26.8353 25.0165 25.8445 23.8999 24.771 22.69C22.5637 20.2023 20.0065 17.3202 18.666 14.9115C17.5748 12.9564 18.4748 8.71571 21.9819 8.71571H32.1476C32.6801 8.71571 33.0756 9.17007 33.103 9.67972V12.475C33.103 13.067 32.8576 13.3146 32.2298 13.3423H26.2943C25.6391 13.3423 25.5569 13.8381 25.7892 14.0857C26.7333 15.2288 27.8343 16.4451 28.9509 17.6784C31.2234 20.1887 33.56 22.7699 34.7678 24.9489ZM42.614 21.8928V30.3466C42.614 30.8562 42.1358 31.2829 41.7141 31.2829H37.634C37.2105 31.2829 36.7602 30.8562 36.7328 30.3742L36.706 9.68032C36.706 9.14363 37.0604 8.71691 37.7156 8.68926H41.5908C42.1638 8.68926 42.614 9.14302 42.614 9.68032V16.7295H47.226V9.68032C47.226 9.25361 47.5673 8.71691 48.263 8.68926H52.1525C52.7934 8.68926 53.1347 9.14302 53.1347 9.68032L53.1621 30.3466C53.1621 30.9109 52.7118 31.2829 52.2067 31.2829H48.1266C47.7579 31.2829 47.1986 30.8286 47.1986 30.3466V21.8928H42.614ZM88.0799 31.2829H75.3214C74.8437 31.2553 74.3666 30.7456 74.3392 30.3466V9.68032C74.3392 9.22596 74.8437 8.74335 75.3488 8.71631H88.0525C88.6666 8.71631 88.9799 9.06069 88.9799 9.65268V12.4756C89.0073 12.9853 88.5576 13.3429 88.1341 13.3429H80.479V17.2939H85.5145C86.019 17.3486 86.4419 17.7482 86.4145 18.175V21.0388C86.4419 21.4661 86.0744 21.9475 85.5687 21.9198H80.479V26.6011H88.1073C88.6386 26.6011 89.0347 27.0008 89.0347 27.5651V30.3466C89.0347 31.0347 88.6386 31.2553 88.0799 31.2829ZM95.4479 31.2553H91.6823C91.2314 31.2553 90.7811 30.9109 90.7543 30.3742V9.65268C90.7543 9.06069 91.0944 8.74335 91.7091 8.71631H95.3931C95.9256 8.71631 96.2943 9.14302 96.3217 9.65268V30.3742C96.3217 30.9386 95.953 31.2553 95.4479 31.2553ZM55.4952 11.9245C55.2498 17.2958 55.2498 22.6758 55.4952 28.0471C55.4952 29.4655 57.0504 31.3106 58.7015 31.3106H68.7177C70.4236 31.3106 71.8429 29.6031 71.8429 28.0471C72.1157 22.5533 72.1157 17.1839 71.8429 11.8968C71.8018 10.5061 70.1502 8.71631 68.7177 8.71631H58.7289C56.9831 8.7716 55.55 10.6167 55.4952 11.9245ZM65.2517 26.8499C64.1736 26.9046 63.136 26.9046 62.1264 26.8499C61.7583 26.8217 61.3902 26.4779 61.3628 25.7759C61.1442 21.9204 61.0489 18.0656 61.3628 14.1969C61.4176 13.522 61.7041 13.1776 62.1264 13.1223C63.1366 13.0123 64.201 13.0123 65.2517 13.0946C65.593 13.0946 65.8658 13.549 65.8926 14.1963C66.1517 18.065 66.1517 21.8928 65.8926 25.7753C65.8658 26.3402 65.702 26.8223 65.2517 26.8499Z" fill="#9D9FA2"/>
</svg>
