<svg width="122" height="16" viewBox="0 0 122 16" fill="none" xmlns="http://www.w3.org/2000/svg">
<path fill-rule="evenodd" clip-rule="evenodd" d="M94.1883 7.62183H89.3912C89.3912 7.62183 89.3238 5.39577 87.0988 5.39577C84.8883 5.39577 84.9289 7.55469 84.9289 8.45868V15.5411H79.3665V6.81267C79.3665 6.81267 79.5143 0.471581 87.2061 0.471581C87.2061 0.471581 92.5801 -0.203296 94.8711 5.17981C94.8711 5.17981 96.48 0.471581 103.006 0.471581H109.144C109.144 0.471581 116.663 0.417594 116.663 7.51385H110.632C110.632 7.51385 110.457 5.75986 108.313 5.75986H103.664C103.664 5.75986 100.607 5.5439 100.607 8.02606C100.607 10.5082 102.324 10.6571 104.092 10.6571H121.125V15.5404H102.832C102.832 15.5404 94.1883 16.2693 94.1883 7.62183ZM63.2184 10.684H70.16V15.5404H61.945C61.945 15.5404 54.1859 15.204 54.1859 8.40399C54.1859 1.59084 60.8057 0.471581 63.4996 0.471581H76.7524V15.5411H71.0037V5.81385H63.0437C63.0437 5.81385 60.552 5.7737 60.552 8.20188C60.552 10.6162 62.7763 10.684 63.2184 10.684ZM8.42163 5.78685H0.675537V0.471581H11.8388C11.8388 0.471581 15.2031 0.633554 15.2031 3.80375V8.33685L23.9537 0.471581H27.2767C27.2767 0.471581 30.4525 0.444585 30.4525 3.95257V8.43168L39.2974 0.471581H42.8087C42.8087 0.471581 46.0252 0.633553 46.0252 4.34365V9.98286C46.0252 9.98286 46.0252 10.5089 46.6013 10.5089H53.5299V15.5411H44.0553C44.0553 15.5411 39.901 15.9467 39.901 11.6697V8.64695C39.901 8.64695 39.8742 7.94577 39.2038 8.61996L31.6461 15.5404H28.3087C28.3087 15.5404 24.4625 15.6754 24.4625 11.696V8.33685C24.4625 8.33685 24.5299 7.70212 24.0066 8.25587L16.1409 15.5404H12.8977C12.8977 15.5404 9.29277 15.892 9.29277 11.8711V6.48803C9.29277 6.48873 9.38628 5.78685 8.42163 5.78685Z" fill="#9D9FA2"/>
</svg>
