<svg width="99" height="32" viewBox="0 0 99 32" fill="none" xmlns="http://www.w3.org/2000/svg">
<path fill-rule="evenodd" clip-rule="evenodd" d="M31.4161 26.0541C31.4161 26.8287 32.0731 27.4553 32.8471 27.4742C33.6242 27.4553 34.2827 26.8287 34.2819 26.0541L34.2888 0.744019H42.7324V28.6428C42.7324 30.0101 41.6234 31.1259 40.2376 31.1259H25.4674C24.0892 31.1259 22.9672 30.0108 22.9672 28.6428V0.744019H31.4177L31.4161 26.0541ZM48.3508 0.744019H61.1385H73.9316C74.2933 0.744613 74.6514 0.815553 74.9853 0.952782C75.3192 1.09001 75.6225 1.29084 75.8778 1.5438C76.133 1.79676 76.3353 2.09688 76.473 2.42703C76.6107 2.75718 76.6812 3.11088 76.6804 3.46792V31.1259H68.2207V5.7562C68.2146 4.97859 67.5691 4.36255 66.7882 4.36255C65.9997 4.36255 65.368 4.96349 65.3557 5.73431V31.1267H56.9336V5.73506C56.9152 4.96425 56.2819 4.3633 55.4926 4.3633C55.306 4.36201 55.121 4.39705 54.9481 4.46641C54.7753 4.53578 54.6179 4.63811 54.4852 4.76756C54.3524 4.897 54.2468 5.05101 54.1744 5.22079C54.102 5.39056 54.0642 5.57276 54.0632 5.75696V31.1259H45.6043V3.46792C45.6032 3.11099 45.6734 2.75734 45.8109 2.42721C45.9483 2.09707 46.1504 1.79693 46.4055 1.54394C46.6605 1.29095 46.9636 1.09009 47.2974 0.952829C47.6312 0.815573 47.9892 0.744612 48.3508 0.744019ZM8.79358 23.4917H17.3305C17.6948 23.492 18.0555 23.4213 18.3921 23.2837C18.7286 23.146 19.0343 22.9441 19.2916 22.6896C19.5489 22.435 19.7528 22.1328 19.8915 21.8003C20.0302 21.4678 20.101 21.1116 20.0999 20.752V3.48C20.0999 1.96781 18.9091 0.744019 17.384 0.744019H0.346924V31.1259H8.79358V23.4917ZM11.5566 5.26063C11.6271 5.43499 11.662 5.62135 11.6594 5.80905V18.3021C11.6662 19.1454 10.9741 19.7298 10.2299 19.7298H8.79358V4.36255H10.2299C10.4201 4.36461 10.6079 4.40371 10.7828 4.47757C10.9576 4.55143 11.1159 4.65862 11.2487 4.79299C11.3815 4.92736 11.4861 5.08628 11.5566 5.26063ZM89.4871 23.6427V31.256H98.0869V3.65182C98.0879 3.29536 98.0162 2.9422 97.876 2.61255C97.7357 2.28291 97.5297 1.98326 97.2696 1.73074C97.0094 1.47823 96.7004 1.27781 96.3601 1.14096C96.0199 1.00411 95.655 0.933523 95.2865 0.933228H80.762C79.2181 0.933228 77.964 2.14484 77.964 3.65182V31.256H86.5606V23.6427H89.4871ZM89.4871 5.9251V19.888H86.5606V5.94695C86.5665 5.57667 86.7229 5.22352 86.996 4.96392C87.269 4.70432 87.6367 4.55914 88.0196 4.55978C88.8219 4.55978 89.4661 5.15353 89.4871 5.9251Z" fill="#9D9FA2"/>
</svg>
