<svg width="50" height="24" viewBox="0 0 50 24" fill="none" xmlns="http://www.w3.org/2000/svg">
<path d="M7.42259 6.81818H9.26705V13.4702C9.26705 14.1993 9.0947 14.8407 8.75 15.3942C8.40862 15.9477 7.92803 16.3802 7.30824 16.6918C6.68845 17 5.96425 17.1541 5.13565 17.1541C4.30374 17.1541 3.57789 17 2.9581 16.6918C2.33831 16.3802 1.85772 15.9477 1.51634 15.3942C1.17495 14.8407 1.00426 14.1993 1.00426 13.4702V6.81818H2.84872V13.3161C2.84872 13.7403 2.94152 14.1181 3.12713 14.4496C3.31605 14.781 3.5812 15.0412 3.92259 15.2301C4.26397 15.4157 4.66832 15.5085 5.13565 15.5085C5.60298 15.5085 6.00734 15.4157 6.34872 15.2301C6.69342 15.0412 6.95857 14.781 7.14418 14.4496C7.32978 14.1181 7.42259 13.7403 7.42259 13.3161V6.81818ZM16.8052 9.61719C16.7588 9.183 16.5633 8.84493 16.2186 8.60298C15.8772 8.36103 15.4331 8.24006 14.8862 8.24006C14.5017 8.24006 14.1719 8.29806 13.8968 8.41406C13.6217 8.53007 13.4113 8.6875 13.2654 8.88636C13.1196 9.08523 13.045 9.31226 13.0417 9.56747C13.0417 9.77959 13.0898 9.96354 13.1859 10.1193C13.2853 10.2751 13.4196 10.4077 13.5886 10.517C13.7576 10.6231 13.9449 10.7126 14.1504 10.7855C14.3559 10.8584 14.563 10.9197 14.7718 10.9695L15.7264 11.2081C16.1109 11.2976 16.4804 11.4186 16.835 11.571C17.193 11.7235 17.5128 11.9157 17.7946 12.1477C18.0796 12.3797 18.305 12.6598 18.4707 12.9879C18.6364 13.3161 18.7193 13.7005 18.7193 14.1413C18.7193 14.7379 18.5668 15.2633 18.2619 15.7173C17.957 16.1681 17.5162 16.5211 16.9395 16.7763C16.3661 17.0282 15.6717 17.1541 14.8564 17.1541C14.0642 17.1541 13.3765 17.0315 12.7931 16.7862C12.2131 16.541 11.7591 16.183 11.4309 15.7124C11.1061 15.2417 10.9305 14.6683 10.9039 13.9922H12.7186C12.7451 14.3468 12.8545 14.6418 13.0467 14.8771C13.2389 15.1125 13.4892 15.2881 13.7974 15.4041C14.109 15.5201 14.457 15.5781 14.8414 15.5781C15.2425 15.5781 15.5938 15.5185 15.8954 15.3991C16.2003 15.2765 16.439 15.1075 16.6113 14.892C16.7837 14.6733 16.8715 14.4181 16.8748 14.1264C16.8715 13.8613 16.7936 13.6425 16.6412 13.4702C16.4887 13.2945 16.2749 13.1487 15.9998 13.0327C15.728 12.9134 15.4099 12.8073 15.0453 12.7145L13.8869 12.4162C13.0484 12.2008 12.3855 11.8743 11.8983 11.4368C11.4144 10.996 11.1724 10.411 11.1724 9.68182C11.1724 9.08191 11.3348 8.55658 11.6596 8.10582C11.9877 7.65507 12.4335 7.3054 12.997 7.05682C13.5604 6.80492 14.1984 6.67898 14.911 6.67898C15.6336 6.67898 16.2666 6.80492 16.8102 7.05682C17.3571 7.3054 17.7863 7.65175 18.0978 8.09588C18.4094 8.53669 18.5701 9.0438 18.5801 9.61719H16.8052ZM23.8139 17H20.3636V6.81818H23.8835C24.8944 6.81818 25.7628 7.02202 26.4886 7.42969C27.2178 7.83404 27.7779 8.41572 28.169 9.17472C28.5601 9.93371 28.7557 10.8419 28.7557 11.8991C28.7557 12.9598 28.5585 13.8712 28.1641 14.6335C27.773 15.3958 27.2079 15.9808 26.4688 16.3885C25.733 16.7962 24.848 17 23.8139 17ZM22.2081 15.4041H23.7244C24.4337 15.4041 25.0253 15.2749 25.4993 15.0163C25.9732 14.7545 26.3295 14.3651 26.5682 13.848C26.8068 13.3277 26.9261 12.678 26.9261 11.8991C26.9261 11.1203 26.8068 10.474 26.5682 9.96023C26.3295 9.44318 25.9766 9.05706 25.5092 8.80185C25.0452 8.54332 24.4685 8.41406 23.7791 8.41406H22.2081V15.4041Z" fill="#282828"/>
<path d="M36.7043 9.75L41.2043 14.25L45.7043 9.75" stroke="#282828" stroke-width="1.125" stroke-linecap="round" stroke-linejoin="round"/>
</svg>
