<svg width="19" height="14" viewBox="0 0 19 14" fill="none" xmlns="http://www.w3.org/2000/svg">
<g clip-path="url(#clip0_201_253)">
<path fill-rule="evenodd" clip-rule="evenodd" d="M0.49585 0H26.1458V1.07734H0.49585V0ZM0.49585 2.15469H26.1458V3.23203H0.49585V2.15469ZM0.49585 4.30664H26.1458V5.38672H0.49585V4.30664ZM0.49585 6.46133H26.1458V7.53867H0.49585V6.46133ZM0.49585 8.61602H26.1458V9.69336H0.49585V8.61602ZM0.49585 10.768H26.1458V11.8453H0.49585V10.768ZM0.49585 12.9227H26.1458V14H0.49585V12.9227Z" fill="#BD3D44"/>
<path fill-rule="evenodd" clip-rule="evenodd" d="M0.49585 1.07715H26.1458V2.15449H0.49585V1.07715ZM0.49585 3.23184H26.1458V4.30645H0.49585V3.23184ZM0.49585 5.38379H26.1458V6.46113H0.49585V5.38379ZM0.49585 7.53848H26.1458V8.61582H0.49585V7.53848ZM0.49585 9.69316H26.1458V10.7705H0.49585V9.69316ZM0.49585 11.8451H26.1458V12.9225H0.49585V11.8451Z" fill="white"/>
<path fill-rule="evenodd" clip-rule="evenodd" d="M0.496582 0H10.7561V7.53867H0.496582V0Z" fill="#192F5D"/>
<path fill-rule="evenodd" clip-rule="evenodd" d="M1.35254 0.322754L1.44746 0.620801H1.74805L1.50547 0.804004L1.59775 1.10479L1.35254 0.918848L1.10996 1.10205L1.20225 0.804004L0.957031 0.620801H1.26289L1.35254 0.322754ZM3.06377 0.322754L3.15605 0.620801H3.45928L3.21406 0.804004L3.30635 1.10479L3.06377 0.918848L2.81855 1.10205L2.91084 0.804004L2.66826 0.620801H2.96885L3.06377 0.322754ZM4.77236 0.322754L4.86729 0.620801H5.16523L4.92266 0.804004L5.01494 1.10479L4.76973 0.918848L4.52715 1.10205L4.61943 0.804004L4.37422 0.620801H4.67744L4.77236 0.322754ZM6.48359 0.322754L6.57588 0.620801H6.8791L6.63389 0.804004L6.72881 1.10479L6.48359 0.918848L6.23838 1.10205L6.3333 0.804004L6.08809 0.620801H6.38867L6.48359 0.322754ZM8.19219 0.322754L8.28711 0.620801H8.5877L8.34512 0.804004L8.4374 1.10479L8.19219 0.918848L7.94961 1.10205L8.04189 0.804004L7.79932 0.620801H8.0999L8.19219 0.322754ZM9.90342 0.322754L9.9957 0.620801H10.2989L10.0537 0.804004L10.1486 1.10479L9.90342 0.918848L9.6582 1.10205L9.75313 0.804004L9.50791 0.620801H9.81113L9.90342 0.322754ZM2.20947 1.07744L2.30176 1.37549H2.60498L2.35977 1.55869L2.44941 1.85674L2.21211 1.67354L1.96689 1.85674L2.05391 1.55869L1.8166 1.37549H2.11719L2.20947 1.07744ZM3.91807 1.07744L4.01299 1.37549H4.31357L4.06836 1.55869L4.16328 1.85674L3.91807 1.67354L3.67285 1.85674L3.76777 1.55869L3.52256 1.37549H3.82578L3.91807 1.07744ZM5.6293 1.07744L5.72158 1.37549H6.02481L5.77959 1.55869L5.87188 1.85674L5.6293 1.67354L5.38408 1.85674L5.47637 1.55869L5.23379 1.37549H5.53438L5.6293 1.07744ZM7.33789 1.07744L7.43281 1.37549H7.7334L7.48818 1.55869L7.58311 1.85674L7.33789 1.67354L7.09531 1.85674L7.1876 1.55869L6.94238 1.37549H7.24824L7.33789 1.07744ZM9.04912 1.07744L9.14141 1.37549H9.44463L9.19941 1.55869L9.2917 1.85674L9.04912 1.67354L8.80391 1.85674L8.89619 1.55869L8.65361 1.37549H8.9542L9.04912 1.07744ZM1.35254 1.82939L1.44746 2.13291H1.74805L1.50547 2.31611L1.59775 2.61416L1.35254 2.42822L1.10996 2.61416L1.20225 2.31338L0.957031 2.13018H1.26289L1.35254 1.82939ZM3.06377 1.82939L3.15605 2.13018H3.45928L3.21406 2.31338L3.30635 2.61143L3.06377 2.42549L2.81855 2.61143L2.91084 2.31064L2.66826 2.12744H2.96885L3.06377 1.82939ZM4.77236 1.82939L4.86729 2.13018H5.16523L4.92266 2.31338L5.01494 2.61143L4.76973 2.42549L4.52715 2.61143L4.61943 2.31064L4.37422 2.12744H4.67744L4.77236 1.82939ZM6.48359 1.82939L6.57588 2.13018H6.8791L6.63389 2.31338L6.72881 2.61143L6.48359 2.42549L6.23838 2.61143L6.3333 2.31064L6.08809 2.12744H6.38867L6.48359 1.82939ZM8.19219 1.82939L8.28711 2.13018H8.5877L8.34512 2.31338L8.4374 2.61143L8.19219 2.42549L7.94961 2.61143L8.04189 2.31064L7.79932 2.12744H8.0999L8.19219 1.82939ZM9.90342 1.82939L9.9957 2.13018H10.2989L10.0537 2.31338L10.1486 2.61143L9.90342 2.42549L9.6582 2.61143L9.75313 2.31064L9.50791 2.12744H9.81113L9.90342 1.82939ZM2.20947 2.58408L2.30176 2.88213H2.60498L2.35977 3.06533L2.45205 3.36611L2.20947 3.18018L1.96426 3.36338L2.05654 3.06533L1.81396 2.88213H2.11455L2.20947 2.58408ZM3.91807 2.58408L4.01299 2.88213H4.31357L4.06836 3.06533L4.16328 3.36611L3.91807 3.18018L3.67285 3.36338L3.76777 3.06533L3.52256 2.88213H3.82578L3.91807 2.58408ZM5.6293 2.58408L5.72158 2.88213H6.02481L5.77959 3.06533L5.87188 3.36611L5.6293 3.18018L5.38408 3.36338L5.47637 3.06533L5.23379 2.88213H5.53438L5.6293 2.58408ZM7.33789 2.58408L7.43281 2.88213H7.7334L7.49082 3.06533L7.58311 3.36611L7.33789 3.18018L7.09531 3.36338L7.1876 3.06533L6.94238 2.88213H7.24824L7.33789 2.58408ZM9.04912 2.58408L9.14141 2.88213H9.44463L9.19941 3.06533L9.2917 3.36611L9.04912 3.18018L8.80391 3.36338L8.89619 3.06533L8.65361 2.88213H8.9542L9.04912 2.58408ZM1.35254 3.33877L1.44746 3.63682H1.74805L1.50547 3.82002L1.59775 4.1208L1.35254 3.93486L1.10996 4.11807L1.20225 3.82002L0.957031 3.63682H1.26289L1.35254 3.33877ZM3.06377 3.33877L3.15605 3.63682H3.45928L3.21406 3.82002L3.30635 4.11807L3.06377 3.93486L2.81855 4.11807L2.91084 3.82002L2.66826 3.63682H2.96885L3.06377 3.33877ZM4.77236 3.33877L4.86729 3.63682H5.16523L4.92266 3.82002L5.01494 4.1208L4.76973 3.93486L4.52715 4.11807L4.61943 3.82002L4.37422 3.63682H4.67744L4.77236 3.33877ZM6.48359 3.33877L6.57588 3.63682H6.8791L6.63389 3.82002L6.72881 4.1208L6.48359 3.93486L6.23838 4.11807L6.3333 3.82002L6.08809 3.63682H6.38867L6.48359 3.33877ZM8.19219 3.33877L8.28711 3.63682H8.5877L8.34512 3.82002L8.4374 4.1208L8.19219 3.93486L7.94961 4.11807L8.04189 3.82002L7.79932 3.63682H8.0999L8.19219 3.33877ZM9.90342 3.33877L9.9957 3.63682H10.2989L10.0537 3.82002L10.1486 4.1208L9.90342 3.93486L9.6582 4.11807L9.75313 3.82002L9.50791 3.63682H9.81113L9.90342 3.33877ZM2.20947 4.09346L2.30176 4.3915H2.60498L2.35977 4.57471L2.45205 4.87275L2.20947 4.68682L1.96426 4.87275L2.05654 4.57197L1.81396 4.38877H2.11455L2.20947 4.09346ZM3.91807 4.09346L4.01299 4.3915H4.31357L4.06836 4.57471L4.16328 4.87275L3.91807 4.68682L3.67285 4.87275L3.76777 4.57197L3.52256 4.38877H3.82578L3.91807 4.09346ZM5.6293 4.09346L5.72158 4.3915H6.02481L5.77959 4.57471L5.87188 4.87275L5.6293 4.68682L5.38408 4.87275L5.47637 4.57197L5.23379 4.38877H5.53438L5.6293 4.09346ZM7.33789 4.09346L7.43281 4.3915H7.7334L7.49082 4.57471L7.58311 4.87275L7.33789 4.68682L7.09531 4.87275L7.1876 4.57197L6.94238 4.38877H7.24824L7.33789 4.09346ZM9.04912 4.09346L9.14141 4.3915H9.44463L9.19941 4.57471L9.2917 4.87275L9.04912 4.68682L8.80391 4.87275L8.89619 4.57197L8.65361 4.38877H8.9542L9.04912 4.09346ZM1.35254 4.84541L1.44746 5.14619H1.74805L1.50547 5.32939L1.59775 5.62471L1.35254 5.4415L1.10996 5.62471L1.20225 5.32666L0.957031 5.14346H1.26289L1.35254 4.84541ZM3.06377 4.84541L3.15605 5.14619H3.45928L3.21406 5.32939L3.30898 5.62471L3.06377 5.4415L2.81855 5.62471L2.91348 5.32666L2.66826 5.14346H2.96885L3.06377 4.84541ZM4.77236 4.84541L4.86729 5.14619H5.16523L4.92266 5.32939L5.01494 5.62471L4.76973 5.4415L4.52715 5.62471L4.61943 5.32666L4.37422 5.14346H4.67744L4.77236 4.84541ZM6.48359 4.84541L6.57588 5.14619H6.8791L6.63389 5.32939L6.72881 5.62471L6.48359 5.4415L6.23838 5.62471L6.3333 5.32666L6.08809 5.14346H6.38867L6.48359 4.84541ZM8.19219 4.84541L8.28711 5.14619H8.5877L8.34512 5.32939L8.4374 5.62471L8.19219 5.4415L7.94961 5.62471L8.04189 5.32666L7.79932 5.14346H8.0999L8.19219 4.84541ZM9.90342 4.84541L9.9957 5.14619H10.2989L10.0537 5.32939L10.1486 5.62471L9.90342 5.4415L9.6582 5.62471L9.75313 5.32666L9.50791 5.14346H9.81113L9.90342 4.84541ZM2.20947 5.6001L2.30176 5.89814H2.60498L2.35977 6.08135L2.45205 6.38213L2.20947 6.19619L1.96426 6.37939L2.05654 6.08135L1.81396 5.89814H2.11455L2.20947 5.6001ZM3.91807 5.6001L4.01299 5.89814H4.31357L4.06836 6.08135L4.16328 6.38213L3.91807 6.19619L3.67285 6.37939L3.76777 6.08135L3.52256 5.89814H3.82578L3.91807 5.6001ZM5.6293 5.6001L5.72158 5.89814H6.02481L5.77959 6.08135L5.87188 6.38213L5.6293 6.19619L5.38408 6.37939L5.47637 6.08135L5.23379 5.89814H5.53438L5.6293 5.6001ZM7.33789 5.6001L7.43281 5.89814H7.7334L7.49082 6.08135L7.58311 6.38213L7.33789 6.19619L7.09531 6.37939L7.1876 6.08135L6.94238 5.89814H7.24824L7.33789 5.6001ZM9.04912 5.6001L9.14141 5.89814H9.44463L9.19941 6.08135L9.2917 6.38213L9.04912 6.19619L8.80391 6.37939L8.89619 6.08135L8.65361 5.89814H8.9542L9.04912 5.6001ZM1.35254 6.35478L1.44746 6.65283H1.74805L1.50547 6.83604L1.59775 7.13408L1.35254 6.95088L1.10996 7.13408L1.20225 6.8333L0.957031 6.6501H1.26289L1.35254 6.35478ZM3.06377 6.35478L3.15605 6.65283H3.45928L3.21406 6.83604L3.30898 7.13408L3.06377 6.95088L2.81855 7.13408L2.91348 6.8333L2.66826 6.6501H2.96885L3.06377 6.35478ZM4.77236 6.35478L4.86729 6.65283H5.16523L4.92793 6.83604L5.02022 7.13408L4.775 6.95088L4.53242 7.13408L4.62471 6.8333L4.37949 6.6501H4.68271L4.77236 6.35478ZM6.48359 6.35478L6.57588 6.65283H6.8791L6.63389 6.83604L6.72881 7.13408L6.48359 6.95088L6.23838 7.13408L6.3333 6.8333L6.08809 6.6501H6.38867L6.48359 6.35478ZM8.19219 6.35478L8.28711 6.65283H8.5877L8.34512 6.83604L8.4374 7.13408L8.19219 6.95088L7.94961 7.13408L8.04189 6.8333L7.79932 6.6501H8.0999L8.19219 6.35478ZM9.90342 6.35478L9.9957 6.65283H10.2989L10.0537 6.83604L10.1486 7.13408L9.90342 6.95088L9.6582 7.13408L9.75313 6.8333L9.50791 6.6501H9.81113L9.90342 6.35478Z" fill="white"/>
</g>
<defs>
<clipPath id="clip0_201_253">
<rect width="18" height="14" fill="white" transform="translate(0.5)"/>
</clipPath>
</defs>
</svg>
