<svg width="36" height="36" viewBox="0 0 36 36" fill="none" xmlns="http://www.w3.org/2000/svg">
<rect width="36" height="36" rx="18" fill="white"/>
<path fill-rule="evenodd" clip-rule="evenodd" d="M15.2434 12.5239C13.8972 12.5239 12.8059 13.6152 12.8059 14.9614V20.9614C12.8059 22.3076 13.8972 23.3989 15.2434 23.3989H21.2434C22.5896 23.3989 23.6809 22.3076 23.6809 20.9614V14.9614C23.6809 13.6152 22.5896 12.5239 21.2434 12.5239H15.2434ZM11.6809 14.9614C11.6809 12.9939 13.2759 11.3989 15.2434 11.3989H21.2434C23.2109 11.3989 24.8059 12.9939 24.8059 14.9614V20.9614C24.8059 22.9289 23.2109 24.5239 21.2434 24.5239H15.2434C13.2759 24.5239 11.6809 22.9289 11.6809 20.9614V14.9614ZM18.2434 16.2739C17.3114 16.2739 16.5559 17.0294 16.5559 17.9614C16.5559 18.8934 17.3114 19.6489 18.2434 19.6489C19.1754 19.6489 19.9309 18.8934 19.9309 17.9614C19.9309 17.0294 19.1754 16.2739 18.2434 16.2739ZM15.4309 17.9614C15.4309 16.4081 16.6901 15.1489 18.2434 15.1489C19.7967 15.1489 21.0559 16.4081 21.0559 17.9614C21.0559 19.5147 19.7967 20.7739 18.2434 20.7739C16.6901 20.7739 15.4309 19.5147 15.4309 17.9614ZM22.1809 14.5864C22.1809 14.2758 21.9291 14.0239 21.6184 14.0239C21.3077 14.0239 21.0559 14.2758 21.0559 14.5864V14.5874C21.0559 14.8981 21.3077 15.1499 21.6184 15.1499C21.9291 15.1499 22.1809 14.8981 22.1809 14.5874V14.5864Z" fill="#282828"/>
</svg>
