<svg width="96" height="24" viewBox="0 0 96 24" fill="none" xmlns="http://www.w3.org/2000/svg">
<g clip-path="url(#clip0_201_655)">
<path fill-rule="evenodd" clip-rule="evenodd" d="M-0.00415039 5H25.6458V6.07734H-0.00415039V5ZM-0.00415039 7.15469H25.6458V8.23203H-0.00415039V7.15469ZM-0.00415039 9.30664H25.6458V10.3867H-0.00415039V9.30664ZM-0.00415039 11.4613H25.6458V12.5387H-0.00415039V11.4613ZM-0.00415039 13.616H25.6458V14.6934H-0.00415039V13.616ZM-0.00415039 15.768H25.6458V16.8453H-0.00415039V15.768ZM-0.00415039 17.9227H25.6458V19H-0.00415039V17.9227Z" fill="#BD3D44"/>
<path fill-rule="evenodd" clip-rule="evenodd" d="M-0.00415039 6.07739H25.6458V7.15474H-0.00415039V6.07739ZM-0.00415039 8.23208H25.6458V9.30669H-0.00415039V8.23208ZM-0.00415039 10.384H25.6458V11.4614H-0.00415039V10.384ZM-0.00415039 12.5387H25.6458V13.6161H-0.00415039V12.5387ZM-0.00415039 14.6934H25.6458V15.7708H-0.00415039V14.6934ZM-0.00415039 16.8454H25.6458V17.9227H-0.00415039V16.8454Z" fill="white"/>
<path fill-rule="evenodd" clip-rule="evenodd" d="M-0.00341797 5H10.2561V12.5387H-0.00341797V5Z" fill="#192F5D"/>
<path fill-rule="evenodd" clip-rule="evenodd" d="M0.852539 5.32275L0.947461 5.6208H1.24805L1.00547 5.804L1.09775 6.10479L0.852539 5.91885L0.609961 6.10205L0.702246 5.804L0.457031 5.6208H0.762891L0.852539 5.32275ZM2.56377 5.32275L2.65605 5.6208H2.95928L2.71406 5.804L2.80635 6.10479L2.56377 5.91885L2.31855 6.10205L2.41084 5.804L2.16826 5.6208H2.46885L2.56377 5.32275ZM4.27236 5.32275L4.36729 5.6208H4.66523L4.42266 5.804L4.51494 6.10479L4.26973 5.91885L4.02715 6.10205L4.11943 5.804L3.87422 5.6208H4.17744L4.27236 5.32275ZM5.98359 5.32275L6.07588 5.6208H6.3791L6.13389 5.804L6.22881 6.10479L5.98359 5.91885L5.73838 6.10205L5.8333 5.804L5.58809 5.6208H5.88867L5.98359 5.32275ZM7.69219 5.32275L7.78711 5.6208H8.0877L7.84512 5.804L7.9374 6.10479L7.69219 5.91885L7.44961 6.10205L7.54189 5.804L7.29932 5.6208H7.5999L7.69219 5.32275ZM9.40342 5.32275L9.4957 5.6208H9.79893L9.55371 5.804L9.64863 6.10479L9.40342 5.91885L9.1582 6.10205L9.25313 5.804L9.00791 5.6208H9.31113L9.40342 5.32275ZM1.70947 6.07744L1.80176 6.37549H2.10498L1.85977 6.55869L1.94941 6.85674L1.71211 6.67354L1.46689 6.85674L1.55391 6.55869L1.3166 6.37549H1.61719L1.70947 6.07744ZM3.41807 6.07744L3.51299 6.37549H3.81357L3.56836 6.55869L3.66328 6.85674L3.41807 6.67354L3.17285 6.85674L3.26777 6.55869L3.02256 6.37549H3.32578L3.41807 6.07744ZM5.1293 6.07744L5.22158 6.37549H5.52481L5.27959 6.55869L5.37188 6.85674L5.1293 6.67354L4.88408 6.85674L4.97637 6.55869L4.73379 6.37549H5.03438L5.1293 6.07744ZM6.83789 6.07744L6.93281 6.37549H7.2334L6.98818 6.55869L7.08311 6.85674L6.83789 6.67354L6.59531 6.85674L6.6876 6.55869L6.44238 6.37549H6.74824L6.83789 6.07744ZM8.54912 6.07744L8.64141 6.37549H8.94463L8.69941 6.55869L8.7917 6.85674L8.54912 6.67354L8.30391 6.85674L8.39619 6.55869L8.15361 6.37549H8.4542L8.54912 6.07744ZM0.852539 6.82939L0.947461 7.13291H1.24805L1.00547 7.31611L1.09775 7.61416L0.852539 7.42822L0.609961 7.61416L0.702246 7.31338L0.457031 7.13018H0.762891L0.852539 6.82939ZM2.56377 6.82939L2.65605 7.13018H2.95928L2.71406 7.31338L2.80635 7.61143L2.56377 7.42549L2.31855 7.61143L2.41084 7.31064L2.16826 7.12744H2.46885L2.56377 6.82939ZM4.27236 6.82939L4.36729 7.13018H4.66523L4.42266 7.31338L4.51494 7.61143L4.26973 7.42549L4.02715 7.61143L4.11943 7.31064L3.87422 7.12744H4.17744L4.27236 6.82939ZM5.98359 6.82939L6.07588 7.13018H6.3791L6.13389 7.31338L6.22881 7.61143L5.98359 7.42549L5.73838 7.61143L5.8333 7.31064L5.58809 7.12744H5.88867L5.98359 6.82939ZM7.69219 6.82939L7.78711 7.13018H8.0877L7.84512 7.31338L7.9374 7.61143L7.69219 7.42549L7.44961 7.61143L7.54189 7.31064L7.29932 7.12744H7.5999L7.69219 6.82939ZM9.40342 6.82939L9.4957 7.13018H9.79893L9.55371 7.31338L9.64863 7.61143L9.40342 7.42549L9.1582 7.61143L9.25313 7.31064L9.00791 7.12744H9.31113L9.40342 6.82939ZM1.70947 7.58408L1.80176 7.88213H2.10498L1.85977 8.06533L1.95205 8.36611L1.70947 8.18018L1.46426 8.36338L1.55654 8.06533L1.31396 7.88213H1.61455L1.70947 7.58408ZM3.41807 7.58408L3.51299 7.88213H3.81357L3.56836 8.06533L3.66328 8.36611L3.41807 8.18018L3.17285 8.36338L3.26777 8.06533L3.02256 7.88213H3.32578L3.41807 7.58408ZM5.1293 7.58408L5.22158 7.88213H5.52481L5.27959 8.06533L5.37188 8.36611L5.1293 8.18018L4.88408 8.36338L4.97637 8.06533L4.73379 7.88213H5.03438L5.1293 7.58408ZM6.83789 7.58408L6.93281 7.88213H7.2334L6.99082 8.06533L7.08311 8.36611L6.83789 8.18018L6.59531 8.36338L6.6876 8.06533L6.44238 7.88213H6.74824L6.83789 7.58408ZM8.54912 7.58408L8.64141 7.88213H8.94463L8.69941 8.06533L8.7917 8.36611L8.54912 8.18018L8.30391 8.36338L8.39619 8.06533L8.15361 7.88213H8.4542L8.54912 7.58408ZM0.852539 8.33877L0.947461 8.63682H1.24805L1.00547 8.82002L1.09775 9.1208L0.852539 8.93486L0.609961 9.11807L0.702246 8.82002L0.457031 8.63682H0.762891L0.852539 8.33877ZM2.56377 8.33877L2.65605 8.63682H2.95928L2.71406 8.82002L2.80635 9.11807L2.56377 8.93486L2.31855 9.11807L2.41084 8.82002L2.16826 8.63682H2.46885L2.56377 8.33877ZM4.27236 8.33877L4.36729 8.63682H4.66523L4.42266 8.82002L4.51494 9.1208L4.26973 8.93486L4.02715 9.11807L4.11943 8.82002L3.87422 8.63682H4.17744L4.27236 8.33877ZM5.98359 8.33877L6.07588 8.63682H6.3791L6.13389 8.82002L6.22881 9.1208L5.98359 8.93486L5.73838 9.11807L5.8333 8.82002L5.58809 8.63682H5.88867L5.98359 8.33877ZM7.69219 8.33877L7.78711 8.63682H8.0877L7.84512 8.82002L7.9374 9.1208L7.69219 8.93486L7.44961 9.11807L7.54189 8.82002L7.29932 8.63682H7.5999L7.69219 8.33877ZM9.40342 8.33877L9.4957 8.63682H9.79893L9.55371 8.82002L9.64863 9.1208L9.40342 8.93486L9.1582 9.11807L9.25313 8.82002L9.00791 8.63682H9.31113L9.40342 8.33877ZM1.70947 9.09346L1.80176 9.3915H2.10498L1.85977 9.57471L1.95205 9.87275L1.70947 9.68682L1.46426 9.87275L1.55654 9.57197L1.31396 9.38877H1.61455L1.70947 9.09346ZM3.41807 9.09346L3.51299 9.3915H3.81357L3.56836 9.57471L3.66328 9.87275L3.41807 9.68682L3.17285 9.87275L3.26777 9.57197L3.02256 9.38877H3.32578L3.41807 9.09346ZM5.1293 9.09346L5.22158 9.3915H5.52481L5.27959 9.57471L5.37188 9.87275L5.1293 9.68682L4.88408 9.87275L4.97637 9.57197L4.73379 9.38877H5.03438L5.1293 9.09346ZM6.83789 9.09346L6.93281 9.3915H7.2334L6.99082 9.57471L7.08311 9.87275L6.83789 9.68682L6.59531 9.87275L6.6876 9.57197L6.44238 9.38877H6.74824L6.83789 9.09346ZM8.54912 9.09346L8.64141 9.3915H8.94463L8.69941 9.57471L8.7917 9.87275L8.54912 9.68682L8.30391 9.87275L8.39619 9.57197L8.15361 9.38877H8.4542L8.54912 9.09346ZM0.852539 9.84541L0.947461 10.1462H1.24805L1.00547 10.3294L1.09775 10.6247L0.852539 10.4415L0.609961 10.6247L0.702246 10.3267L0.457031 10.1435H0.762891L0.852539 9.84541ZM2.56377 9.84541L2.65605 10.1462H2.95928L2.71406 10.3294L2.80898 10.6247L2.56377 10.4415L2.31855 10.6247L2.41348 10.3267L2.16826 10.1435H2.46885L2.56377 9.84541ZM4.27236 9.84541L4.36729 10.1462H4.66523L4.42266 10.3294L4.51494 10.6247L4.26973 10.4415L4.02715 10.6247L4.11943 10.3267L3.87422 10.1435H4.17744L4.27236 9.84541ZM5.98359 9.84541L6.07588 10.1462H6.3791L6.13389 10.3294L6.22881 10.6247L5.98359 10.4415L5.73838 10.6247L5.8333 10.3267L5.58809 10.1435H5.88867L5.98359 9.84541ZM7.69219 9.84541L7.78711 10.1462H8.0877L7.84512 10.3294L7.9374 10.6247L7.69219 10.4415L7.44961 10.6247L7.54189 10.3267L7.29932 10.1435H7.5999L7.69219 9.84541ZM9.40342 9.84541L9.4957 10.1462H9.79893L9.55371 10.3294L9.64863 10.6247L9.40342 10.4415L9.1582 10.6247L9.25313 10.3267L9.00791 10.1435H9.31113L9.40342 9.84541ZM1.70947 10.6001L1.80176 10.8981H2.10498L1.85977 11.0813L1.95205 11.3821L1.70947 11.1962L1.46426 11.3794L1.55654 11.0813L1.31396 10.8981H1.61455L1.70947 10.6001ZM3.41807 10.6001L3.51299 10.8981H3.81357L3.56836 11.0813L3.66328 11.3821L3.41807 11.1962L3.17285 11.3794L3.26777 11.0813L3.02256 10.8981H3.32578L3.41807 10.6001ZM5.1293 10.6001L5.22158 10.8981H5.52481L5.27959 11.0813L5.37188 11.3821L5.1293 11.1962L4.88408 11.3794L4.97637 11.0813L4.73379 10.8981H5.03438L5.1293 10.6001ZM6.83789 10.6001L6.93281 10.8981H7.2334L6.99082 11.0813L7.08311 11.3821L6.83789 11.1962L6.59531 11.3794L6.6876 11.0813L6.44238 10.8981H6.74824L6.83789 10.6001ZM8.54912 10.6001L8.64141 10.8981H8.94463L8.69941 11.0813L8.7917 11.3821L8.54912 11.1962L8.30391 11.3794L8.39619 11.0813L8.15361 10.8981H8.4542L8.54912 10.6001ZM0.852539 11.3548L0.947461 11.6528H1.24805L1.00547 11.836L1.09775 12.1341L0.852539 11.9509L0.609961 12.1341L0.702246 11.8333L0.457031 11.6501H0.762891L0.852539 11.3548ZM2.56377 11.3548L2.65605 11.6528H2.95928L2.71406 11.836L2.80898 12.1341L2.56377 11.9509L2.31855 12.1341L2.41348 11.8333L2.16826 11.6501H2.46885L2.56377 11.3548ZM4.27236 11.3548L4.36729 11.6528H4.66523L4.42793 11.836L4.52022 12.1341L4.275 11.9509L4.03242 12.1341L4.12471 11.8333L3.87949 11.6501H4.18271L4.27236 11.3548ZM5.98359 11.3548L6.07588 11.6528H6.3791L6.13389 11.836L6.22881 12.1341L5.98359 11.9509L5.73838 12.1341L5.8333 11.8333L5.58809 11.6501H5.88867L5.98359 11.3548ZM7.69219 11.3548L7.78711 11.6528H8.0877L7.84512 11.836L7.9374 12.1341L7.69219 11.9509L7.44961 12.1341L7.54189 11.8333L7.29932 11.6501H7.5999L7.69219 11.3548ZM9.40342 11.3548L9.4957 11.6528H9.79893L9.55371 11.836L9.64863 12.1341L9.40342 11.9509L9.1582 12.1341L9.25313 11.8333L9.00791 11.6501H9.31113L9.40342 11.3548Z" fill="white"/>
</g>
<path d="M27.0043 17V6.81818H33.6264V8.36435H28.8487V11.1286H33.2834V12.6747H28.8487V15.4538H33.6662V17H27.0043ZM37.2283 12.5256V17H35.4286V9.36364H37.1488V10.6612H37.2383C37.4139 10.2337 37.694 9.89394 38.0785 9.64205C38.4663 9.39015 38.9452 9.2642 39.5153 9.2642C40.0423 9.2642 40.5013 9.37689 40.8924 9.60227C41.2868 9.82765 41.5917 10.1541 41.8072 10.5817C42.0259 11.0092 42.1336 11.5279 42.1303 12.1378V17H40.3306V12.4162C40.3306 11.9058 40.198 11.5064 39.9329 11.218C39.671 10.9297 39.3081 10.7855 38.8441 10.7855C38.5292 10.7855 38.2492 10.8551 38.0039 10.9943C37.762 11.1302 37.5714 11.3274 37.4322 11.5859C37.2963 11.8445 37.2283 12.1577 37.2283 12.5256ZM47.2809 20.0227C46.6346 20.0227 46.0794 19.9349 45.6154 19.7592C45.1514 19.5869 44.7785 19.3549 44.4968 19.0632C44.2151 18.7715 44.0195 18.4484 43.9102 18.0938L45.5309 17.701C45.6038 17.8501 45.7099 17.9976 45.8491 18.1435C45.9883 18.2926 46.1755 18.4152 46.4109 18.5114C46.6495 18.6108 46.9495 18.6605 47.3107 18.6605C47.8211 18.6605 48.2437 18.5362 48.5785 18.2876C48.9132 18.0424 49.0806 17.638 49.0806 17.0746V15.6278H48.9911C48.8983 15.8134 48.7624 16.004 48.5835 16.1996C48.4078 16.3951 48.1741 16.5592 47.8825 16.6918C47.5941 16.8243 47.2312 16.8906 46.7937 16.8906C46.207 16.8906 45.6751 16.7531 45.1978 16.478C44.7238 16.1996 44.346 15.7853 44.0643 15.2351C43.7859 14.6816 43.6467 13.9889 43.6467 13.157C43.6467 12.3184 43.7859 11.6108 44.0643 11.0341C44.346 10.4541 44.7255 10.0149 45.2028 9.71662C45.68 9.41501 46.212 9.2642 46.7987 9.2642C47.2461 9.2642 47.614 9.34044 47.9023 9.4929C48.194 9.64205 48.426 9.82268 48.5984 10.0348C48.7707 10.2436 48.9016 10.4408 48.9911 10.6264H49.0906V9.36364H50.8654V17.1243C50.8654 17.7772 50.7096 18.3175 50.3981 18.745C50.0865 19.1726 49.6606 19.4924 49.1204 19.7045C48.5801 19.9167 47.967 20.0227 47.2809 20.0227ZM47.2958 15.4787C47.677 15.4787 48.0018 15.3859 48.2702 15.2003C48.5387 15.0147 48.7425 14.7479 48.8817 14.3999C49.021 14.0518 49.0906 13.6342 49.0906 13.147C49.0906 12.6664 49.021 12.2455 48.8817 11.8842C48.7459 11.523 48.5437 11.2429 48.2752 11.044C48.0101 10.8419 47.6836 10.7408 47.2958 10.7408C46.8948 10.7408 46.56 10.8452 46.2915 11.054C46.0231 11.2628 45.8209 11.5495 45.685 11.9141C45.5491 12.2753 45.4812 12.6863 45.4812 13.147C45.4812 13.6143 45.5491 14.0237 45.685 14.375C45.8242 14.723 46.0281 14.9948 46.2965 15.1903C46.5683 15.3826 46.9014 15.4787 47.2958 15.4787ZM54.5096 6.81818V17H52.7099V6.81818H54.5096ZM56.3603 17V9.36364H58.16V17H56.3603ZM57.2651 8.27983C56.9801 8.27983 56.7348 8.18537 56.5293 7.99645C56.3238 7.80421 56.2211 7.57386 56.2211 7.3054C56.2211 7.03362 56.3238 6.80327 56.5293 6.61435C56.7348 6.42211 56.9801 6.32599 57.2651 6.32599C57.5534 6.32599 57.7987 6.42211 58.0009 6.61435C58.2064 6.80327 58.3091 7.03362 58.3091 7.3054C58.3091 7.57386 58.2064 7.80421 58.0009 7.99645C57.7987 8.18537 57.5534 8.27983 57.2651 8.27983ZM66.0462 11.3821L64.4055 11.5611C64.3591 11.3954 64.2779 11.2396 64.1619 11.0938C64.0492 10.9479 63.8968 10.8303 63.7045 10.7408C63.5123 10.6513 63.277 10.6065 62.9986 10.6065C62.6241 10.6065 62.3092 10.6877 62.054 10.8501C61.8021 11.0125 61.6778 11.223 61.6811 11.4815C61.6778 11.7036 61.759 11.8842 61.9247 12.0234C62.0938 12.1626 62.3722 12.277 62.7599 12.3665L64.0625 12.6449C64.785 12.8007 65.322 13.0476 65.6733 13.3857C66.0279 13.7237 66.2069 14.1662 66.2102 14.7131C66.2069 15.1937 66.0661 15.6179 65.7876 15.9858C65.5125 16.3504 65.1297 16.6354 64.6392 16.8409C64.1487 17.0464 63.5852 17.1491 62.9489 17.1491C62.0142 17.1491 61.2618 16.9536 60.6918 16.5625C60.1217 16.1681 59.782 15.6196 59.6726 14.9169L61.4276 14.7479C61.5071 15.0926 61.6761 15.3527 61.9347 15.5284C62.1932 15.7041 62.5296 15.7919 62.9439 15.7919C63.3714 15.7919 63.7145 15.7041 63.973 15.5284C64.2348 15.3527 64.3658 15.1357 64.3658 14.8771C64.3658 14.6584 64.2813 14.4777 64.1122 14.3352C63.9465 14.1927 63.688 14.0833 63.3366 14.0071L62.0341 13.7337C61.3016 13.5812 60.7597 13.3243 60.4084 12.9631C60.0571 12.5985 59.883 12.1378 59.8864 11.581C59.883 11.1103 60.0107 10.7027 60.2692 10.358C60.531 10.0099 60.8939 9.74148 61.358 9.55256C61.8253 9.36032 62.3639 9.2642 62.9737 9.2642C63.8686 9.2642 64.5729 9.45478 65.0866 9.83594C65.6037 10.2171 65.9235 10.7325 66.0462 11.3821ZM69.494 12.5256V17H67.6942V6.81818H69.4542V10.6612H69.5437C69.7227 10.2304 69.9994 9.89062 70.3739 9.64205C70.7518 9.39015 71.2324 9.2642 71.8157 9.2642C72.346 9.2642 72.8084 9.37524 73.2028 9.5973C73.5972 9.81937 73.9021 10.1442 74.1175 10.5717C74.3363 10.9993 74.4457 11.5213 74.4457 12.1378V17H72.646V12.4162C72.646 11.9025 72.5134 11.5031 72.2482 11.218C71.9864 10.9297 71.6185 10.7855 71.1445 10.7855C70.8263 10.7855 70.5413 10.8551 70.2894 10.9943C70.0408 11.1302 69.8453 11.3274 69.7028 11.5859C69.5636 11.8445 69.494 12.1577 69.494 12.5256Z" fill="#282828"/>
<path d="M82.7043 9.75L87.2043 14.25L91.7043 9.75" stroke="#282828" stroke-width="1.125" stroke-linecap="round" stroke-linejoin="round"/>
<defs>
<clipPath id="clip0_201_655">
<rect width="18" height="14" fill="white" transform="translate(0 5)"/>
</clipPath>
</defs>
</svg>
