<svg width="119" height="27" viewBox="0 0 119 27" fill="none" xmlns="http://www.w3.org/2000/svg">
<path fill-rule="evenodd" clip-rule="evenodd" d="M6 6.31348C6 3.00342 8.68156 0.313477 12 0.313477C15.3184 0.313477 18 3.00342 18 6.31348H15C15 4.66264 13.6508 3.31348 12 3.31348C10.3492 3.31348 9 4.66264 9 6.31348H6ZM6 18.3135V15.3135C4.34916 15.3135 3 13.9643 3 12.3135C3 10.6626 4.34916 9.31348 6 9.31348V6.31348C2.68156 6.31348 0 9.00342 0 12.3135C0 15.6319 2.68156 18.3135 6 18.3135ZM18 18.3135V15.3135C19.6508 15.3135 21 13.9643 21 12.3135C21 10.6626 19.6508 9.31348 18 9.31348V6.31348C21.3184 6.31348 24 9.00342 24 12.3135C24 15.6319 21.3184 18.3135 18 18.3135ZM18 18.3135H15C15 19.9643 13.6508 21.3135 12 21.3135C10.3492 21.3135 9 19.9643 9 18.3135H6C6 21.6319 8.68156 24.3135 12 24.3135C15.3184 24.3135 18 21.6319 18 18.3135ZM37.9776 21.7087C35.5258 21.7087 33.5833 21.026 32.15 19.6606C30.7167 18.2762 30 16.3039 30 13.7437V8.96475C30 6.40457 30.7167 4.44177 32.15 3.07634C33.5833 1.69195 35.5258 0.999756 37.9776 0.999756C40.4104 0.999756 42.287 1.67299 43.6071 3.01945C44.9462 4.34695 45.6157 6.177 45.6157 8.5096V8.68028H41.9381V8.39582C41.9381 7.22003 41.608 6.25286 40.9479 5.49429C40.3067 4.73572 39.3166 4.35643 37.9776 4.35643C36.6574 4.35643 35.6201 4.76416 34.8657 5.57962C34.1114 6.39509 33.7342 7.5045 33.7342 8.90785V13.8006C33.7342 15.185 34.1114 16.2944 34.8657 17.1289C35.6201 17.9443 36.6574 18.3521 37.9776 18.3521C39.3166 18.3521 40.3067 17.9728 40.9479 17.2142C41.608 16.4367 41.9381 15.4695 41.9381 14.3127V13.8006H45.6157V14.1989C45.6157 16.5315 44.9462 18.371 43.6071 19.7175C42.287 21.045 40.4104 21.7087 37.9776 21.7087ZM47.8813 21.3105V1.39801H51.4458V21.3105H47.8813ZM57.4193 20.8553C58.532 21.4243 59.7862 21.7087 61.1818 21.7087C62.5774 21.7087 63.8315 21.4243 64.9442 20.8553C66.0569 20.2864 66.9339 19.4615 67.5751 18.3805C68.2164 17.2995 68.537 16.0005 68.537 14.4833V14.0282C68.537 12.5111 68.2164 11.212 67.5751 10.131C66.9339 9.05009 66.0569 8.22514 64.9442 7.65621C63.8315 7.08728 62.5774 6.80282 61.1818 6.80282C59.7862 6.80282 58.532 7.08728 57.4193 7.65621C56.3066 8.22514 55.4296 9.05009 54.7884 10.131C54.1472 11.212 53.8266 12.5111 53.8266 14.0282V14.4833C53.8266 16.0005 54.1472 17.2995 54.7884 18.3805C55.4296 19.4615 56.3066 20.2864 57.4193 20.8553ZM63.8975 17.4702C63.1809 18.1719 62.2756 18.5227 61.1818 18.5227C60.0879 18.5227 59.1827 18.1719 58.466 17.4702C57.7493 16.7496 57.391 15.7255 57.391 14.398V14.1135C57.391 12.786 57.7493 11.7715 58.466 11.0698C59.1827 10.3491 60.0879 9.98882 61.1818 9.98882C62.2945 9.98882 63.1997 10.3491 63.8975 11.0698C64.6142 11.7715 64.9725 12.786 64.9725 14.1135V14.398C64.9725 15.7255 64.6142 16.7496 63.8975 17.4702ZM70.937 21.3105V7.20107H74.4449V9.05009H74.9541C75.1804 8.55701 75.6047 8.09239 76.2271 7.65621C76.8494 7.20107 77.7924 6.9735 79.056 6.9735C80.1499 6.9735 81.1023 7.22952 81.9132 7.74155C82.743 8.23462 83.3843 8.92682 83.8369 9.81814C84.2895 10.6905 84.5158 11.7146 84.5158 12.8903V21.3105H80.9514V13.1748C80.9514 12.1128 80.6874 11.3163 80.1593 10.7853C79.6501 10.2543 78.9146 9.98882 77.9527 9.98882C76.8589 9.98882 76.0102 10.3586 75.4067 11.0982C74.8032 11.8189 74.5014 12.8335 74.5014 14.142V21.3105H70.937ZM87.479 7.20107V21.3105H91.0434V7.20107H87.479ZM87.6204 4.92536C88.0731 5.34257 88.62 5.55118 89.2612 5.55118C89.9213 5.55118 90.4682 5.34257 90.902 4.92536C91.3358 4.50814 91.5526 3.95818 91.5526 3.27547C91.5526 2.59275 91.3358 2.04279 90.902 1.62558C90.4682 1.20836 89.9213 0.999756 89.2612 0.999756C88.62 0.999756 88.0731 1.20836 87.6204 1.62558C87.1867 2.04279 86.9698 2.59275 86.9698 3.27547C86.9698 3.95818 87.1867 4.50814 87.6204 4.92536ZM96.4229 21.3105V10.1595H92.8585V7.20107H96.4229V4.584C96.4229 3.61682 96.7058 2.84877 97.2716 2.27984C97.8562 1.69195 98.6106 1.39801 99.5347 1.39801H103.212V4.35643H100.779C100.251 4.35643 99.9873 4.64089 99.9873 5.20982V7.20107H103.665V10.1595H99.9873V21.3105H96.4229ZM107.062 23.8707V26.9998H115.888C116.831 26.9998 117.586 26.7058 118.151 26.1179C118.717 25.549 119 24.7809 119 23.8138V7.20107H115.436V14.3696C115.436 15.6781 115.134 16.7022 114.53 17.4418C113.927 18.1624 113.078 18.5227 111.984 18.5227C111.022 18.5227 110.277 18.2572 109.749 17.7262C109.24 17.1952 108.986 16.3987 108.986 15.3367V7.20107H105.421V15.6212C105.421 16.778 105.647 17.8021 106.1 18.6934C106.553 19.5847 107.185 20.2864 107.995 20.7984C108.825 21.2915 109.787 21.538 110.881 21.538C111.73 21.538 112.427 21.4337 112.974 21.2251C113.521 21.0165 113.955 20.751 114.276 20.4286C114.596 20.1062 114.832 19.7839 114.983 19.4615H115.492V23.0173C115.492 23.5862 115.228 23.8707 114.7 23.8707H107.062ZM12 17.9112C15.1006 17.9112 17.5978 15.3973 17.5978 12.3135C17.5978 9.21292 15.1006 6.71571 12 6.71571C8.89944 6.71571 6.40223 9.21292 6.40223 12.3135C6.40223 15.3973 8.89944 17.9112 12 17.9112ZM12 15.1124C10.4581 15.1124 9.20112 13.8554 9.20112 12.3135C9.20112 10.7716 10.4581 9.51459 12 9.51459C13.5419 9.51459 14.7989 10.7716 14.7989 12.3135C14.7989 13.8554 13.5419 15.1124 12 15.1124Z" fill="#282828"/>
</svg>
