<svg width="36" height="36" viewBox="0 0 36 36" fill="none" xmlns="http://www.w3.org/2000/svg">
<rect width="36" height="36" rx="18" fill="white"/>
<path fill-rule="evenodd" clip-rule="evenodd" d="M12.0576 13.8979C12.1747 13.5138 12.5319 13.2344 12.9544 13.2344H23.4544C23.8769 13.2344 24.2341 13.5138 24.3513 13.8979L18.2044 17.9958L12.0576 13.8979ZM10.8919 14.1616C10.8918 14.1676 10.8918 14.1736 10.8919 14.1796V21.6719C10.8919 22.811 11.8153 23.7344 12.9544 23.7344H23.4544C24.5935 23.7344 25.5169 22.811 25.5169 21.6719V14.1796M24.3919 15.2229V21.6719C24.3919 22.1896 23.9722 22.6094 23.4544 22.6094H12.9544C12.4366 22.6094 12.0169 22.1896 12.0169 21.6719V15.2229L17.8924 19.1399C18.0813 19.2659 18.3275 19.2659 18.5164 19.1399L24.3919 15.2229ZM25.5169 14.1616C25.5113 13.0272 24.5901 12.1094 23.4544 12.1094H12.9544C11.8188 12.1094 10.8975 13.0272 10.8919 14.1616" fill="#282828"/>
</svg>
