<svg width="36" height="36" viewBox="0 0 36 36" fill="none" xmlns="http://www.w3.org/2000/svg">
<rect width="36" height="36" rx="18" fill="white"/>
<path d="M25.2272 11.9299C24.4772 12.2974 23.7422 12.4466 22.9772 12.6724C22.1364 11.7236 20.8899 11.6711 19.6922 12.1196C18.4944 12.5681 17.7099 13.6646 17.7272 14.9224V15.6724C15.2934 15.7346 13.1259 14.6261 11.7272 12.6724C11.7272 12.6724 8.59067 18.2471 14.7272 20.9224C13.3232 21.8576 11.9229 22.4884 10.2272 22.4224C12.7082 23.7746 15.4119 24.2396 17.7527 23.5601C20.4377 22.7801 22.6442 20.7679 23.4909 17.7536C23.7435 16.8369 23.8689 15.8898 23.8637 14.9389C23.8622 14.7521 24.9962 12.8599 25.2272 11.9291V11.9299Z" stroke="#282828" stroke-width="1.125" stroke-linecap="round" stroke-linejoin="round"/>
</svg>
