<svg width="74" height="24" viewBox="0 0 74 24" fill="none" xmlns="http://www.w3.org/2000/svg">
<path d="M1.00426 17V6.81818H4.82244C5.60464 6.81818 6.26089 6.96401 6.79119 7.25568C7.32481 7.54735 7.72751 7.94839 7.99929 8.45881C8.27438 8.96591 8.41193 9.54261 8.41193 10.1889C8.41193 10.8419 8.27438 11.4219 7.99929 11.929C7.7242 12.4361 7.31818 12.8355 6.78125 13.1271C6.24432 13.4155 5.5831 13.5597 4.79759 13.5597H2.26705V12.0433H4.54901C5.00639 12.0433 5.38092 11.9638 5.67259 11.8047C5.96425 11.6456 6.17969 11.4268 6.31889 11.1484C6.46141 10.87 6.53267 10.5502 6.53267 10.1889C6.53267 9.82765 6.46141 9.50947 6.31889 9.23438C6.17969 8.95928 5.9626 8.7455 5.66761 8.59304C5.37595 8.43726 4.99976 8.35938 4.53906 8.35938H2.84872V17H1.00426ZM9.93448 17V9.36364H11.6795V10.6364H11.7591C11.8983 10.1955 12.1369 9.85582 12.475 9.61719C12.8163 9.37524 13.2058 9.25426 13.6433 9.25426C13.7427 9.25426 13.8538 9.25923 13.9764 9.26918C14.1023 9.2758 14.2067 9.2874 14.2896 9.30398V10.9595C14.2134 10.933 14.0924 10.9098 13.9267 10.8899C13.7643 10.8667 13.6068 10.8551 13.4544 10.8551C13.1262 10.8551 12.8313 10.9264 12.5694 11.0689C12.3109 11.2081 12.1071 11.402 11.9579 11.6506C11.8088 11.8991 11.7342 12.1858 11.7342 12.5107V17H9.93448ZM18.5018 17.1491C17.756 17.1491 17.1097 16.9851 16.5629 16.657C16.016 16.3288 15.5917 15.8698 15.2901 15.2798C14.9918 14.6899 14.8427 14.0005 14.8427 13.2116C14.8427 12.4228 14.9918 11.7318 15.2901 11.1385C15.5917 10.5452 16.016 10.0845 16.5629 9.75639C17.1097 9.42827 17.756 9.2642 18.5018 9.2642C19.2475 9.2642 19.8938 9.42827 20.4407 9.75639C20.9876 10.0845 21.4102 10.5452 21.7085 11.1385C22.0101 11.7318 22.1609 12.4228 22.1609 13.2116C22.1609 14.0005 22.0101 14.6899 21.7085 15.2798C21.4102 15.8698 20.9876 16.3288 20.4407 16.657C19.8938 16.9851 19.2475 17.1491 18.5018 17.1491ZM18.5117 15.7074C18.9161 15.7074 19.2541 15.5964 19.5259 15.3743C19.7977 15.1489 19.9999 14.8473 20.1325 14.4695C20.2683 14.0916 20.3363 13.6707 20.3363 13.2067C20.3363 12.7393 20.2683 12.3168 20.1325 11.9389C19.9999 11.5578 19.7977 11.2545 19.5259 11.0291C19.2541 10.8037 18.9161 10.6911 18.5117 10.6911C18.0974 10.6911 17.7527 10.8037 17.4776 11.0291C17.2058 11.2545 17.002 11.5578 16.8661 11.9389C16.7335 12.3168 16.6673 12.7393 16.6673 13.2067C16.6673 13.6707 16.7335 14.0916 16.8661 14.4695C17.002 14.8473 17.2058 15.1489 17.4776 15.3743C17.7527 15.5964 18.0974 15.7074 18.5117 15.7074ZM26.5222 17.1342C25.9223 17.1342 25.3854 16.9801 24.9114 16.6719C24.4374 16.3636 24.0629 15.9162 23.7878 15.3295C23.5127 14.7429 23.3752 14.0303 23.3752 13.1918C23.3752 12.3433 23.5144 11.6274 23.7928 11.044C24.0745 10.4574 24.454 10.0149 24.9313 9.71662C25.4086 9.41501 25.9405 9.2642 26.5272 9.2642C26.9746 9.2642 27.3425 9.34044 27.6309 9.4929C27.9192 9.64205 28.1479 9.82268 28.3169 10.0348C28.486 10.2436 28.6169 10.4408 28.7097 10.6264H28.7843V6.81818H30.589V17H28.8191V15.7969H28.7097C28.6169 15.9825 28.4827 16.1797 28.307 16.3885C28.1313 16.594 27.8993 16.7696 27.611 16.9155C27.3226 17.0613 26.9597 17.1342 26.5222 17.1342ZM27.0243 15.6577C27.4055 15.6577 27.7303 15.5549 27.9988 15.3494C28.2672 15.1406 28.4711 14.8506 28.6103 14.4794C28.7495 14.1082 28.8191 13.6757 28.8191 13.1818C28.8191 12.688 28.7495 12.2588 28.6103 11.8942C28.4744 11.5296 28.2722 11.2462 28.0037 11.044C27.7386 10.8419 27.4121 10.7408 27.0243 10.7408C26.6233 10.7408 26.2885 10.8452 26.0201 11.054C25.7516 11.2628 25.5494 11.5511 25.4135 11.919C25.2776 12.2869 25.2097 12.7079 25.2097 13.1818C25.2097 13.6591 25.2776 14.085 25.4135 14.4595C25.5527 14.8307 25.7566 15.1241 26.025 15.3395C26.2968 15.5516 26.6299 15.6577 27.0243 15.6577ZM37.3739 13.7884V9.36364H39.1737V17H37.4286V15.6428H37.3491C37.1767 16.0703 36.8933 16.42 36.4989 16.6918C36.1078 16.9635 35.6256 17.0994 35.0522 17.0994C34.5517 17.0994 34.1093 16.9884 33.7248 16.7663C33.3436 16.541 33.0453 16.2145 32.8299 15.7869C32.6145 15.3561 32.5067 14.8357 32.5067 14.2259V9.36364H34.3065V13.9474C34.3065 14.4313 34.439 14.8158 34.7042 15.1009C34.9693 15.3859 35.3174 15.5284 35.7482 15.5284C36.0134 15.5284 36.2702 15.4638 36.5188 15.3345C36.7674 15.2053 36.9712 15.013 37.1303 14.7578C37.2927 14.4993 37.3739 14.1761 37.3739 13.7884ZM44.3553 17.1491C43.593 17.1491 42.9384 16.9818 42.3915 16.647C41.848 16.3123 41.4287 15.8499 41.1337 15.2599C40.842 14.6667 40.6962 13.9839 40.6962 13.2116C40.6962 12.4361 40.8453 11.7517 41.1436 11.1584C41.4419 10.5618 41.8629 10.0978 42.4064 9.76633C42.9533 9.43158 43.5996 9.2642 44.3453 9.2642C44.9651 9.2642 45.5137 9.37855 45.9909 9.60724C46.4715 9.83262 46.8543 10.1525 47.1394 10.5668C47.4244 10.9777 47.5868 11.4583 47.6266 12.0085H45.9064C45.8368 11.6406 45.6711 11.334 45.4093 11.0888C45.1507 10.8402 44.8044 10.7159 44.3702 10.7159C44.0023 10.7159 43.6792 10.8153 43.4007 11.0142C43.1223 11.2098 42.9052 11.4915 42.7495 11.8594C42.597 12.2273 42.5208 12.6681 42.5208 13.1818C42.5208 13.7022 42.597 14.1496 42.7495 14.5241C42.9019 14.8954 43.1157 15.1821 43.3908 15.3842C43.6692 15.5831 43.9957 15.6825 44.3702 15.6825C44.6354 15.6825 44.8723 15.6328 45.0811 15.5334C45.2933 15.4306 45.4706 15.2831 45.6131 15.0909C45.7556 14.8987 45.8534 14.665 45.9064 14.3899H47.6266C47.5835 14.9302 47.4244 15.4091 47.1493 15.8267C46.8742 16.241 46.4997 16.5658 46.0257 16.8011C45.5518 17.0331 44.995 17.1491 44.3553 17.1491ZM52.9176 9.36364V10.7557H48.5277V9.36364H52.9176ZM49.6115 7.53409H51.4112V14.7031C51.4112 14.9451 51.4477 15.1307 51.5206 15.2599C51.5968 15.3859 51.6963 15.4721 51.8189 15.5185C51.9415 15.5649 52.0774 15.5881 52.2266 15.5881C52.3393 15.5881 52.442 15.5798 52.5348 15.5632C52.6309 15.5466 52.7038 15.5317 52.7536 15.5185L53.0568 16.9254C52.9607 16.9586 52.8232 16.995 52.6442 17.0348C52.4685 17.0746 52.2531 17.0978 51.9979 17.1044C51.5471 17.1177 51.1411 17.0497 50.7798 16.9006C50.4186 16.7481 50.1319 16.5128 49.9197 16.1946C49.7109 15.8764 49.6082 15.4787 49.6115 15.0014V7.53409Z" fill="#282828"/>
<path d="M60.7043 9.75L65.2043 14.25L69.7043 9.75" stroke="#282828" stroke-width="1.125" stroke-linecap="round" stroke-linejoin="round"/>
</svg>
