<svg width="24" height="24" viewBox="0 0 24 24" fill="none" xmlns="http://www.w3.org/2000/svg">
<path fill-rule="evenodd" clip-rule="evenodd" d="M4.07663 6.53075C4.23287 6.01858 4.70913 5.646 5.27242 5.646H19.2724C19.8357 5.646 20.312 6.01858 20.4682 6.53075L12.2724 11.9946L4.07663 6.53075ZM2.52245 6.88226C2.52231 6.89026 2.5223 6.89826 2.52242 6.90625V16.896C2.52242 18.4148 3.75364 19.646 5.27242 19.646H19.2724C20.7912 19.646 22.0224 18.4148 22.0224 16.896V6.90622M20.5224 8.29738V16.896C20.5224 17.5864 19.9628 18.146 19.2724 18.146H5.27242C4.58206 18.146 4.02242 17.5864 4.02242 16.896V8.29738L11.8564 13.52C12.1083 13.688 12.4365 13.688 12.6884 13.52L20.5224 8.29738ZM22.0224 6.88229C22.015 5.36981 20.7866 4.146 19.2724 4.146H5.27242C3.75822 4.146 2.52985 5.3698 2.52245 6.88226" fill="#282828"/>
</svg>
