<svg width="28" height="28" viewBox="0 0 28 28" fill="none" xmlns="http://www.w3.org/2000/svg">
<path fill-rule="evenodd" clip-rule="evenodd" d="M11.3078 6.99965C11.3078 6.82743 11.3949 6.46165 11.7488 6.13397C12.0906 5.81749 12.7521 5.47401 14.0001 5.47401C15.2481 5.47401 15.9095 5.81749 16.2513 6.13397C16.6052 6.46165 16.6924 6.82743 16.6924 6.99965H18.3078C18.3078 6.39409 18.0449 5.5932 17.3488 4.94866C16.6406 4.29292 15.5521 3.85862 14.0001 3.85862C12.4481 3.85862 11.3595 4.29292 10.6513 4.94866C9.95522 5.5932 9.69238 6.39409 9.69238 6.99965H11.3078ZM11.3078 7V8.82046H16.6924V7H18.3078V8.82046H21.0821C21.5282 8.82046 21.8898 9.18208 21.8898 9.62816V20.6613C21.8898 21.2956 21.6357 21.9027 21.1855 22.3492C20.7356 22.7955 20.1267 23.0451 19.4931 23.0451H8.3703C7.73677 23.0451 7.12787 22.7955 6.67792 22.3492C6.22774 21.9027 5.97363 21.2956 5.97363 20.6613V9.62816C5.97363 9.18208 6.33525 8.82046 6.78133 8.82046H9.69238V7H11.3078ZM9.69238 12.8333V10.4358H7.58902V20.6613C7.58902 20.863 7.66973 21.0577 7.81553 21.2023C7.96156 21.3472 8.16099 21.4297 8.3703 21.4297H19.4931C19.7024 21.4297 19.9019 21.3472 20.0479 21.2023C20.1937 21.0577 20.2744 20.863 20.2744 20.6613V10.4358H18.3078V12.8333H16.6924V10.4358H11.3078V12.8333H9.69238Z" fill="#282828"/>
</svg>
