<svg width="48" height="28" viewBox="0 0 48 28" fill="none" xmlns="http://www.w3.org/2000/svg">
<path fill-rule="evenodd" clip-rule="evenodd" d="M11.3078 6.99965C11.3078 6.82743 11.3949 6.46165 11.7488 6.13397C12.0906 5.81749 12.7521 5.47401 14.0001 5.47401C15.2481 5.47401 15.9095 5.81749 16.2513 6.13397C16.6052 6.46165 16.6924 6.82743 16.6924 6.99965H18.3078C18.3078 6.39409 18.0449 5.5932 17.3488 4.94866C16.6406 4.29292 15.5521 3.85862 14.0001 3.85862C12.4481 3.85862 11.3595 4.29292 10.6513 4.94866C9.95522 5.5932 9.69238 6.39409 9.69238 6.99965H11.3078ZM11.3078 7V8.82046H16.6924V7H18.3078V8.82046H21.0821C21.5282 8.82046 21.8898 9.18208 21.8898 9.62816V20.6613C21.8898 21.2956 21.6357 21.9027 21.1855 22.3492C20.7356 22.7955 20.1267 23.0451 19.4931 23.0451H8.3703C7.73677 23.0451 7.12787 22.7955 6.67792 22.3492C6.22774 21.9027 5.97363 21.2956 5.97363 20.6613V9.62816C5.97363 9.18208 6.33525 8.82046 6.78133 8.82046H9.69238V7H11.3078ZM9.69238 12.8333V10.4358H7.58902V20.6613C7.58902 20.863 7.66973 21.0577 7.81553 21.2023C7.96156 21.3472 8.16099 21.4297 8.3703 21.4297H19.4931C19.7024 21.4297 19.9019 21.3472 20.0479 21.2023C20.1937 21.0577 20.2744 20.863 20.2744 20.6613V10.4358H18.3078V12.8333H16.6924V10.4358H11.3078V12.8333H9.69238Z" fill="#282828"/>
<g clip-path="url(#clip0_201_389)">
<circle cx="38" cy="14" r="10" fill="#282828"/>
<path d="M34.9281 18V16.6705L38.0346 13.794C38.2988 13.5384 38.5204 13.3082 38.6994 13.1037C38.8812 12.8991 39.019 12.6989 39.1127 12.5028C39.2065 12.304 39.2534 12.0895 39.2534 11.8594C39.2534 11.6037 39.1951 11.3835 39.0787 11.1989C38.9622 11.0114 38.8031 10.8679 38.6014 10.7685C38.3997 10.6662 38.171 10.6151 37.9153 10.6151C37.6483 10.6151 37.4153 10.669 37.2164 10.777C37.0176 10.8849 36.8642 11.0398 36.7562 11.2415C36.6483 11.4432 36.5943 11.6832 36.5943 11.9616H34.8429C34.8429 11.3906 34.9721 10.8949 35.2306 10.4744C35.4892 10.054 35.8514 9.72869 36.3173 9.49858C36.7832 9.26847 37.3201 9.15341 37.9281 9.15341C38.5531 9.15341 39.0971 9.2642 39.5602 9.4858C40.0261 9.70455 40.3883 10.0085 40.6468 10.3977C40.9054 10.7869 41.0346 11.233 41.0346 11.7358C41.0346 12.0653 40.9693 12.3906 40.8386 12.7116C40.7108 13.0327 40.4821 13.3892 40.1525 13.7812C39.823 14.1705 39.3585 14.6378 38.7591 15.1832L37.4849 16.4318V16.4915H41.1497V18H34.9281Z" fill="white"/>
</g>
<defs>
<clipPath id="clip0_201_389">
<rect width="20" height="20" fill="white" transform="translate(28 4)"/>
</clipPath>
</defs>
</svg>
