<svg width="119" height="27" viewBox="0 0 119 27" fill="none" xmlns="http://www.w3.org/2000/svg">
<path fill-rule="evenodd" clip-rule="evenodd" d="M6 6.31372C6 3.00366 8.68156 0.313721 12 0.313721C15.3184 0.313721 18 3.00366 18 6.31372H15C15 4.66288 13.6508 3.31372 12 3.31372C10.3492 3.31372 9 4.66288 9 6.31372H6ZM6 18.3137V15.3137C4.34916 15.3137 3 13.9646 3 12.3137C3 10.6629 4.34916 9.31372 6 9.31372V6.31372C2.68156 6.31372 0 9.00366 0 12.3137C0 15.6322 2.68156 18.3137 6 18.3137ZM18 18.3137V15.3137C19.6508 15.3137 21 13.9646 21 12.3137C21 10.6629 19.6508 9.31372 18 9.31372V6.31372C21.3184 6.31372 24 9.00366 24 12.3137C24 15.6322 21.3184 18.3137 18 18.3137ZM18 18.3137H15C15 19.9646 13.6508 21.3137 12 21.3137C10.3492 21.3137 9 19.9646 9 18.3137H6C6 21.6322 8.68156 24.3137 12 24.3137C15.3184 24.3137 18 21.6322 18 18.3137ZM37.9776 21.709C35.5258 21.709 33.5833 21.0263 32.15 19.6608C30.7167 18.2764 30 16.3042 30 13.744V8.96499C30 6.40482 30.7167 4.44201 32.15 3.07659C33.5833 1.6922 35.5258 1 37.9776 1C40.4104 1 42.287 1.67323 43.6071 3.01969C44.9462 4.34719 45.6157 6.17724 45.6157 8.50985V8.68052H41.9381V8.39606C41.9381 7.22028 41.608 6.2531 40.9479 5.49453C40.3067 4.73596 39.3166 4.35667 37.9776 4.35667C36.6574 4.35667 35.6201 4.76441 34.8657 5.57987C34.1114 6.39533 33.7342 7.50474 33.7342 8.9081V13.8009C33.7342 15.1853 34.1114 16.2947 34.8657 17.1291C35.6201 17.9446 36.6574 18.3523 37.9776 18.3523C39.3166 18.3523 40.3067 17.973 40.9479 17.2144C41.608 16.4369 41.9381 15.4697 41.9381 14.3129V13.8009H45.6157V14.1991C45.6157 16.5317 44.9462 18.3713 43.6071 19.7177C42.287 21.0452 40.4104 21.709 37.9776 21.709ZM47.8813 21.3107V1.39825H51.4458V21.3107H47.8813ZM57.4193 20.8556C58.532 21.4245 59.7862 21.709 61.1818 21.709C62.5774 21.709 63.8315 21.4245 64.9442 20.8556C66.0569 20.2867 66.9339 19.4617 67.5751 18.3807C68.2164 17.2998 68.537 16.0007 68.537 14.4836V14.0284C68.537 12.5113 68.2164 11.2123 67.5751 10.1313C66.9339 9.05033 66.0569 8.22538 64.9442 7.65646C63.8315 7.08753 62.5774 6.80306 61.1818 6.80306C59.7862 6.80306 58.532 7.08753 57.4193 7.65646C56.3066 8.22538 55.4296 9.05033 54.7884 10.1313C54.1472 11.2123 53.8266 12.5113 53.8266 14.0284V14.4836C53.8266 16.0007 54.1472 17.2998 54.7884 18.3807C55.4296 19.4617 56.3066 20.2867 57.4193 20.8556ZM63.8975 17.4705C63.1809 18.1721 62.2756 18.523 61.1818 18.523C60.0879 18.523 59.1827 18.1721 58.466 17.4705C57.7493 16.7498 57.391 15.7257 57.391 14.3982V14.1138C57.391 12.7863 57.7493 11.7717 58.466 11.07C59.1827 10.3494 60.0879 9.98906 61.1818 9.98906C62.2945 9.98906 63.1997 10.3494 63.8975 11.07C64.6142 11.7717 64.9725 12.7863 64.9725 14.1138V14.3982C64.9725 15.7257 64.6142 16.7498 63.8975 17.4705ZM70.937 21.3107V7.20131H74.4449V9.05033H74.9541C75.1804 8.55726 75.6047 8.09263 76.2271 7.65646C76.8494 7.20131 77.7924 6.97374 79.056 6.97374C80.1499 6.97374 81.1023 7.22976 81.9132 7.7418C82.743 8.23487 83.3843 8.92706 83.8369 9.81838C84.2895 10.6907 84.5158 11.7148 84.5158 12.8906V21.3107H80.9514V13.1751C80.9514 12.1131 80.6874 11.3166 80.1593 10.7856C79.6501 10.2546 78.9146 9.98906 77.9527 9.98906C76.8589 9.98906 76.0102 10.3589 75.4067 11.0985C74.8032 11.8191 74.5014 12.8337 74.5014 14.1422V21.3107H70.937ZM87.479 7.20131V21.3107H91.0434V7.20131H87.479ZM87.6204 4.9256C88.0731 5.34282 88.62 5.55142 89.2612 5.55142C89.9213 5.55142 90.4682 5.34282 90.902 4.9256C91.3358 4.50839 91.5526 3.95842 91.5526 3.27571C91.5526 2.593 91.3358 2.04303 90.902 1.62582C90.4682 1.20861 89.9213 1 89.2612 1C88.62 1 88.0731 1.20861 87.6204 1.62582C87.1867 2.04303 86.9698 2.593 86.9698 3.27571C86.9698 3.95842 87.1867 4.50839 87.6204 4.9256ZM96.4229 21.3107V10.1597H92.8585V7.20131H96.4229V4.58425C96.4229 3.61707 96.7058 2.84901 97.2716 2.28009C97.8562 1.6922 98.6106 1.39825 99.5347 1.39825H103.212V4.35667H100.779C100.251 4.35667 99.9873 4.64114 99.9873 5.21007V7.20131H103.665V10.1597H99.9873V21.3107H96.4229ZM107.062 23.8709V27H115.888C116.831 27 117.586 26.7061 118.151 26.1182C118.717 25.5492 119 24.7812 119 23.814V7.20131H115.436V14.3698C115.436 15.6783 115.134 16.7024 114.53 17.442C113.927 18.1627 113.078 18.523 111.984 18.523C111.022 18.523 110.277 18.2575 109.749 17.7265C109.24 17.1955 108.986 16.399 108.986 15.337V7.20131H105.421V15.6214C105.421 16.7783 105.647 17.8023 106.1 18.6937C106.553 19.585 107.185 20.2867 107.995 20.7987C108.825 21.2918 109.787 21.5383 110.881 21.5383C111.73 21.5383 112.427 21.434 112.974 21.2254C113.521 21.0168 113.955 20.7513 114.276 20.4289C114.596 20.1065 114.832 19.7841 114.983 19.4617H115.492V23.0175C115.492 23.5864 115.228 23.8709 114.7 23.8709H107.062ZM12 17.9115C15.1006 17.9115 17.5978 15.3975 17.5978 12.3137C17.5978 9.21316 15.1006 6.71596 12 6.71596C8.89944 6.71596 6.40223 9.21316 6.40223 12.3137C6.40223 15.3975 8.89944 17.9115 12 17.9115ZM12 15.1126C10.4581 15.1126 9.20112 13.8556 9.20112 12.3137C9.20112 10.7718 10.4581 9.51484 12 9.51484C13.5419 9.51484 14.7989 10.7718 14.7989 12.3137C14.7989 13.8556 13.5419 15.1126 12 15.1126Z" fill="#282828"/>
</svg>
