<svg width="18" height="18" viewBox="0 0 18 18" fill="none" xmlns="http://www.w3.org/2000/svg">
<g clip-path="url(#clip0_201_35)">
<circle cx="9" cy="9" r="9" fill="#282828"/>
<path d="M5.92809 13V11.6705L9.03462 8.79404C9.29883 8.53835 9.52042 8.30824 9.6994 8.10369C9.88121 7.89915 10.019 7.69886 10.1127 7.50284C10.2065 7.30398 10.2534 7.08949 10.2534 6.85938C10.2534 6.60369 10.1951 6.38352 10.0787 6.19886C9.96218 6.01136 9.80309 5.8679 9.60139 5.76847C9.39968 5.66619 9.17099 5.61506 8.91531 5.61506C8.64826 5.61506 8.41531 5.66903 8.21644 5.77699C8.01758 5.88494 7.86417 6.03977 7.75621 6.24148C7.64826 6.44318 7.59428 6.68324 7.59428 6.96165H5.84286C5.84286 6.39063 5.97212 5.89489 6.23065 5.47443C6.48917 5.05398 6.85138 4.72869 7.31729 4.49858C7.7832 4.26847 8.32013 4.15341 8.92809 4.15341C9.55309 4.15341 10.0971 4.26421 10.5602 4.4858C11.0261 4.70455 11.3883 5.00852 11.6468 5.39773C11.9054 5.78693 12.0346 6.23296 12.0346 6.7358C12.0346 7.06534 11.9693 7.39063 11.8386 7.71165C11.7108 8.03267 11.4821 8.38921 11.1525 8.78125C10.823 9.17046 10.3585 9.63778 9.75906 10.1832L8.48491 11.4318V11.4915H12.1497V13H5.92809Z" fill="white"/>
</g>
<defs>
<clipPath id="clip0_201_35">
<rect width="18" height="18" fill="white"/>
</clipPath>
</defs>
</svg>
