<svg width="28" height="28" viewBox="0 0 28 28" fill="none" xmlns="http://www.w3.org/2000/svg">
<path fill-rule="evenodd" clip-rule="evenodd" d="M5.72622 11.9147C5.72622 8.56388 8.4426 5.84751 11.7934 5.84751C15.1442 5.84751 17.8606 8.56388 17.8606 11.9147C17.8606 15.2655 15.1442 17.9819 11.7934 17.9819C8.4426 17.9819 5.72622 15.2655 5.72622 11.9147ZM11.7934 4.23212C7.55044 4.23212 4.11084 7.67173 4.11084 11.9147C4.11084 16.1577 7.55044 19.5973 11.7934 19.5973C13.624 19.5973 15.3051 18.957 16.6249 17.8881L22.0256 23.2889C22.3411 23.6043 22.8525 23.6043 23.1679 23.2889C23.4833 22.9734 23.4833 22.462 23.1679 22.1466L17.7672 16.7459C18.8358 15.4261 19.476 13.7452 19.476 11.9147C19.476 7.67173 16.0364 4.23212 11.7934 4.23212Z" fill="#282828"/>
</svg>
