<svg width="17" height="23" viewBox="0 0 17 23" fill="none" xmlns="http://www.w3.org/2000/svg">
<path fill-rule="evenodd" clip-rule="evenodd" d="M4.65602 6.33298C4.65602 4.20173 6.38374 2.47401 8.51499 2.47401C10.6462 2.47401 12.374 4.20173 12.374 6.33298C12.374 8.46424 10.6462 10.192 8.51499 10.192C6.38374 10.192 4.65602 8.46424 4.65602 6.33298ZM8.51499 0.858624C5.49158 0.858624 3.04063 3.30958 3.04063 6.33298C3.04063 9.35639 5.49158 11.8073 8.51499 11.8073C11.5384 11.8073 13.9893 9.35639 13.9893 6.33298C13.9893 3.30958 11.5384 0.858624 8.51499 0.858624ZM3.45293 16.317C4.17663 15.5933 5.15817 15.1867 6.18163 15.1867H10.8483C11.8718 15.1867 12.8533 15.5933 13.577 16.317C14.3007 17.0407 14.7073 18.0223 14.7073 19.0457V21.3791C14.7073 21.8251 15.0689 22.1867 15.515 22.1867C15.961 22.1867 16.3227 21.8251 16.3227 21.3791V19.0457C16.3227 17.5938 15.7459 16.2014 14.7193 15.1748C13.6926 14.1481 12.3002 13.5714 10.8483 13.5714H6.18163C4.72974 13.5714 3.33732 14.1481 2.31068 15.1748C1.28404 16.2014 0.707275 17.5938 0.707275 19.0457V21.3791C0.707275 21.8251 1.06889 22.1867 1.51497 22.1867C1.96104 22.1867 2.32266 21.8251 2.32266 21.3791V19.0457C2.32266 18.0223 2.72923 17.0407 3.45293 16.317Z" fill="#282828"/>
</svg>
