<svg width="22" height="19" viewBox="0 0 22 19" fill="none" xmlns="http://www.w3.org/2000/svg">
<path d="M19.0256 10.0373L11.0089 17.75L2.99223 10.0373M2.99223 10.0373C2.46345 9.53751 2.04695 8.93674 1.76893 8.27286C1.49092 7.60897 1.35743 6.89637 1.37685 6.17991C1.39628 5.46345 1.56821 4.75865 1.88182 4.10991C2.19543 3.46117 2.64391 2.88253 3.19904 2.41043C3.75417 1.93833 4.40392 1.583 5.10736 1.36681C5.8108 1.15063 6.55271 1.07827 7.28636 1.15429C8.02 1.23031 8.7295 1.45307 9.37016 1.80854C10.0108 2.16401 10.5688 2.64449 11.0089 3.21972C11.4509 2.64866 12.0095 2.17238 12.6498 1.82069C13.29 1.46899 13.9981 1.24945 14.7296 1.1758C15.4612 1.10215 16.2006 1.17599 16.9015 1.39268C17.6023 1.60937 18.2496 1.96426 18.8028 2.43512C19.356 2.90599 19.8031 3.48271 20.1163 4.12918C20.4295 4.77565 20.6019 5.47795 20.6228 6.19213C20.6438 6.90632 20.5127 7.61701 20.2379 8.27972C19.963 8.94244 19.5503 9.54292 19.0256 10.0436" stroke="#282828" stroke-width="1.61538" stroke-linecap="round" stroke-linejoin="round"/>
</svg>
